<?xml version="1.0" encoding="utf-8"?>
<!-- Generator: Adobe Illustrator 22.1.0, SVG Export Plug-In . SVG Version: 6.00 Build 0)  -->
<svg version="1.1" id="Layer_1" xmlns="http://www.w3.org/2000/svg" xmlns:xlink="http://www.w3.org/1999/xlink" x="0px" y="0px"
	 viewBox="0 0 30 30" style="enable-background:new 0 0 30 30;" xml:space="preserve">
<style type="text/css">
	.st0{fill:#FFFFFF;}
</style>
<path class="st0" d="M7.9,16h3.3v13.5c0,0.3,0.2,0.5,0.5,0.5h5.6c0.3,0,0.5-0.2,0.5-0.5V16h3.8c0.2,0,0.5-0.2,0.5-0.4l0.6-5
	c0-0.1,0-0.3-0.1-0.4c-0.1-0.1-0.2-0.2-0.4-0.2h-4.4V7c0-0.9,0.5-1.4,1.5-1.4c0.1,0,2.8,0,2.8,0c0.3,0,0.5-0.2,0.5-0.5V0.5
	c0-0.3-0.2-0.5-0.5-0.5h-3.9c0,0-0.1,0-0.2,0c-0.7,0-3,0.1-4.9,1.9C11,3.8,11.3,6,11.4,6.4v3.7H7.9c-0.3,0-0.5,0.2-0.5,0.5v4.9
	C7.4,15.8,7.6,16,7.9,16z"/>
</svg>
