<?xml version="1.0" encoding="utf-8"?>
<!-- Generator: Adobe Illustrator 22.1.0, SVG Export Plug-In . SVG Version: 6.00 Build 0)  -->
<svg version="1.1" id="Layer_1" xmlns="http://www.w3.org/2000/svg" xmlns:xlink="http://www.w3.org/1999/xlink" x="0px" y="0px"
	 viewBox="0 0 30 30" style="enable-background:new 0 0 30 30;" xml:space="preserve">
<style type="text/css">
	.st0{fill:#FFFFFF;}
</style>
<g>
	<g>
		<path id="SVGID_1_" class="st0" d="M10,15c0-2.8,2.2-5,5-5s5,2.2,5,5s-2.2,5-5,5S10,17.8,10,15 M7.3,15c0,4.3,3.4,7.7,7.7,7.7
			s7.7-3.4,7.7-7.7S19.3,7.3,15,7.3S7.3,10.7,7.3,15 M21.2,7c0,1,0.8,1.8,1.8,1.8S24.8,8,24.8,7S24,5.2,23,5.2S21.2,6,21.2,7
			 M8.9,27.2c-1.5-0.1-2.3-0.3-2.8-0.5c-0.7-0.3-1.2-0.6-1.7-1.1s-0.9-1-1.1-1.7c-0.2-0.5-0.4-1.3-0.5-2.8C2.7,19.5,2.7,19,2.7,15
			s0-4.5,0.1-6.1c0.1-1.5,0.3-2.3,0.5-2.8C3.6,5.5,3.9,5,4.4,4.4c0.5-0.5,1-0.9,1.7-1.1c0.5-0.2,1.3-0.4,2.8-0.5
			C10.5,2.7,11,2.7,15,2.7s4.5,0,6.1,0.1c1.5,0.1,2.3,0.3,2.8,0.5c0.7,0.3,1.2,0.6,1.7,1.1s0.8,1,1.1,1.7c0.2,0.5,0.4,1.3,0.5,2.8
			c0.1,1.6,0.1,2.1,0.1,6.1s0,4.5-0.1,6.1c-0.1,1.5-0.3,2.3-0.5,2.8c-0.3,0.7-0.6,1.2-1.1,1.7s-1,0.8-1.7,1.1
			c-0.5,0.2-1.3,0.4-2.8,0.5c-1.6,0.1-2.1,0.1-6.1,0.1C11,27.3,10.5,27.3,8.9,27.2 M8.8,0.1C7.2,0.2,6.1,0.4,5.2,0.8
			c-1,0.4-1.8,0.9-2.7,1.7C1.7,3.4,1.2,4.2,0.8,5.2s-0.6,2-0.7,3.6S0,10.9,0,15s0,4.6,0.1,6.2s0.3,2.7,0.7,3.6
			c0.4,1,0.9,1.8,1.7,2.7c0.8,0.8,1.7,1.3,2.7,1.7c1,0.4,2,0.6,3.6,0.7C10.4,30,10.9,30,15,30s4.6,0,6.2-0.1s2.7-0.3,3.6-0.7
			c1-0.4,1.8-0.9,2.7-1.7c0.8-0.8,1.3-1.7,1.7-2.7c0.4-1,0.6-2,0.7-3.6C30,19.6,30,19.1,30,15s0-4.6-0.1-6.2s-0.3-2.7-0.7-3.6
			c-0.4-1-0.9-1.8-1.7-2.7c-0.8-0.8-1.7-1.3-2.7-1.7s-2-0.6-3.6-0.7C19.6,0,19.1,0,15,0S10.4,0,8.8,0.1"/>
	</g>
	<path class="st0" d="M10,15c0-2.8,2.2-5,5-5s5,2.2,5,5s-2.2,5-5,5S10,17.8,10,15 M7.3,15c0,4.3,3.4,7.7,7.7,7.7s7.7-3.4,7.7-7.7
		S19.3,7.3,15,7.3S7.3,10.7,7.3,15 M21.2,7c0,1,0.8,1.8,1.8,1.8S24.8,8,24.8,7S24,5.2,23,5.2S21.2,6,21.2,7 M8.9,27.2
		c-1.5-0.1-2.3-0.3-2.8-0.5c-0.7-0.3-1.2-0.6-1.7-1.1s-0.9-1-1.1-1.7c-0.2-0.5-0.4-1.3-0.5-2.8C2.7,19.5,2.7,19,2.7,15
		s0-4.5,0.1-6.1c0.1-1.5,0.3-2.3,0.5-2.8C3.6,5.5,3.9,5,4.4,4.4c0.5-0.5,1-0.9,1.7-1.1c0.5-0.2,1.3-0.4,2.8-0.5
		C10.5,2.7,11,2.7,15,2.7s4.5,0,6.1,0.1c1.5,0.1,2.3,0.3,2.8,0.5c0.7,0.3,1.2,0.6,1.7,1.1s0.8,1,1.1,1.7c0.2,0.5,0.4,1.3,0.5,2.8
		c0.1,1.6,0.1,2.1,0.1,6.1s0,4.5-0.1,6.1c-0.1,1.5-0.3,2.3-0.5,2.8c-0.3,0.7-0.6,1.2-1.1,1.7s-1,0.8-1.7,1.1
		c-0.5,0.2-1.3,0.4-2.8,0.5c-1.6,0.1-2.1,0.1-6.1,0.1C11,27.3,10.5,27.3,8.9,27.2 M8.8,0.1C7.2,0.2,6.1,0.4,5.2,0.8
		c-1,0.4-1.8,0.9-2.7,1.7C1.7,3.4,1.2,4.2,0.8,5.2s-0.6,2-0.7,3.6S0,10.9,0,15s0,4.6,0.1,6.2s0.3,2.7,0.7,3.6c0.4,1,0.9,1.8,1.7,2.7
		c0.8,0.8,1.7,1.3,2.7,1.7c1,0.4,2,0.6,3.6,0.7C10.4,30,10.9,30,15,30s4.6,0,6.2-0.1s2.7-0.3,3.6-0.7c1-0.4,1.8-0.9,2.7-1.7
		c0.8-0.8,1.3-1.7,1.7-2.7c0.4-1,0.6-2,0.7-3.6C30,19.6,30,19.1,30,15s0-4.6-0.1-6.2s-0.3-2.7-0.7-3.6c-0.4-1-0.9-1.8-1.7-2.7
		c-0.8-0.8-1.7-1.3-2.7-1.7s-2-0.6-3.6-0.7C19.6,0,19.1,0,15,0S10.4,0,8.8,0.1"/>
</g>
</svg>
